<svg width="514" height="512" viewBox="0 0 514 512" fill="none" xmlns="http://www.w3.org/2000/svg">
<path d="M425.555 255.867C425.555 349.516 349.515 425.555 255.867 425.555C162.218 425.555 86.1783 349.516 86.1783 255.867C86.1783 162.218 162.218 86.1784 255.867 86.1784C349.515 86.1784 425.555 162.218 425.555 255.867Z" fill="#8DC63F"/>
<path d="M271.074 512L267.339 448.5C271.43 448.322 275.432 447.967 279.345 447.433L286.816 510.399C281.658 511.111 276.411 511.644 271.074 512ZM225.184 510.399C219.848 509.865 214.601 509.154 209.442 508.265L220.915 445.832C224.828 446.544 228.741 447.077 232.654 447.433L225.184 510.399ZM331.906 500.794L313.23 440.229C316.965 438.984 320.7 437.65 324.436 436.227L346.847 495.725C342.045 497.503 337.064 499.193 331.906 500.794ZM165.153 495.725C160.172 493.946 155.281 491.901 150.478 489.588L176.625 431.958C180.183 433.559 183.829 435.071 187.564 436.494L165.153 495.725ZM388.469 475.448L355.652 421.019C359.031 419.063 362.322 416.928 365.524 414.616L401.809 466.643C397.362 469.667 392.916 472.602 388.469 475.448ZM110.458 466.91C106.011 463.886 101.742 460.773 97.6508 457.572L136.871 407.679C140.073 410.169 143.275 412.482 146.476 414.616L110.458 466.91ZM437.028 437.294L392.204 392.471C395.05 389.625 397.807 386.69 400.475 383.666L447.967 425.822C444.409 429.735 440.763 433.559 437.028 437.294ZM64.3001 426.089C60.7427 422.175 57.3632 418.084 54.1615 413.816L104.054 374.862C106.544 377.886 109.035 380.91 111.525 383.933L64.3001 426.089ZM475.448 388.736L421.286 355.919C423.42 352.539 425.377 349.071 427.156 345.513L483.452 375.129C480.962 379.753 478.294 384.289 475.448 388.736ZM29.3486 375.396C26.8584 370.593 24.5461 365.79 22.4117 360.988L80.0417 335.108C81.8204 338.665 83.5991 342.223 85.3778 345.78L29.3486 375.396ZM501.061 332.44L440.496 313.497C441.741 309.761 442.808 305.937 443.698 302.024L505.33 317.232C504.085 322.39 502.662 327.46 501.061 332.44ZM7.47054 317.499C6.04758 312.34 4.89144 307.182 4.00208 302.024L66.4346 290.818C67.1461 294.553 67.9465 298.378 68.8358 302.291L7.47054 317.499ZM512.534 271.608L449.301 267.873C449.478 263.96 449.567 259.958 449.567 255.867V255.6L513.067 255.333V255.867C513.067 261.203 512.889 266.45 512.534 271.608ZM63.4997 256.133H0V255.867C0 250.708 0.177862 245.55 0.533603 240.392L64.0333 244.127C63.6776 248.04 63.4997 251.953 63.4997 255.867V256.133ZM446.366 220.915C445.654 217.002 444.854 213.089 443.965 209.176L505.33 193.968C506.753 199.126 507.909 204.284 508.798 209.442L446.366 220.915ZM69.1027 209.976L7.47054 195.035C8.71564 189.877 10.1386 184.718 11.7395 179.56L72.3043 198.503C71.0592 202.239 69.992 206.063 69.1027 209.976ZM432.492 176.625C430.891 173.068 429.112 169.511 427.156 165.953L483.452 136.338C485.942 140.962 488.254 145.676 490.389 150.478L432.492 176.625ZM85.3778 166.487L29.0818 137.138C31.572 132.336 34.2401 127.711 37.086 123.264L91.2475 156.081C89.1131 159.461 87.1565 162.929 85.3778 166.487ZM408.213 136.871C405.9 133.67 403.41 130.646 400.742 127.8L447.967 85.6447C451.524 89.5578 454.904 93.5599 458.105 97.6509L408.213 136.871ZM111.792 128.334L64.3001 86.1782C67.8576 82.265 71.415 78.4408 74.9724 74.7056L120.063 119.529C117.217 122.375 114.46 125.31 111.792 128.334ZM375.396 104.054C372.194 101.564 368.992 99.1627 365.79 96.8504L401.809 44.5566C406.078 47.5804 410.347 50.782 414.616 54.1615L375.396 104.054ZM146.476 97.1173L110.458 45.0902C114.726 42.0664 119.084 39.2205 123.531 36.5524L156.615 90.7139C153.235 92.8483 149.856 94.9829 146.476 97.1173ZM335.375 79.7749C331.817 78.1741 328.171 76.6622 324.436 75.2392L346.847 16.0083C351.828 17.787 356.719 19.7436 361.522 21.8781L335.375 79.7749ZM187.564 75.506L164.886 16.2752C169.866 14.4965 174.847 12.8067 179.827 11.2059L198.77 71.7708C195.035 72.838 191.3 74.083 187.564 75.506ZM291.085 66.1678C287.172 65.4563 283.259 64.8339 279.345 64.3002L286.549 1.33403C291.885 2.04551 297.132 2.84599 302.291 3.73534L291.085 66.1678ZM232.654 64.3002L225.184 1.33403C230.342 0.800417 235.589 0.355741 240.925 0L244.661 63.233C240.57 63.5887 236.568 63.9445 232.654 64.3002Z" fill="#8DC63F"/>
<path d="M339.643 262.803L330.572 247.062L289.751 270.541L295.887 280.679C295.887 280.857 295.887 280.946 295.887 280.946C320.166 280.412 335.908 272.942 338.843 271.608C323.368 285.749 298.022 284.681 298.022 284.681H267.072V280.413C267.072 280.413 266.983 280.413 266.805 280.413L242.526 307.36L266.805 334.307C266.983 334.307 267.072 334.307 267.072 334.307V330.572H300.69C306.293 330.572 311.362 327.637 314.297 322.568L339.643 278.545C342.578 273.742 342.578 267.606 339.643 262.803Z" fill="#FEFEFE"/>
<path d="M253.465 215.579C253.465 215.579 253.465 215.49 253.465 215.312C241.725 194.235 227.318 183.829 224.917 181.962C244.66 188.632 255.866 211.31 255.866 211.577L275.343 245.461C275.343 245.639 275.343 245.728 275.343 245.728L272.675 247.329C272.497 247.329 272.497 247.329 272.675 247.329L308.694 255.333C308.694 255.333 308.782 255.333 308.96 255.333L319.366 220.382C319.366 220.382 319.277 220.382 319.099 220.382L316.164 221.982L294.82 185.43C292.152 180.361 286.816 177.426 281.213 177.426H230.52C224.65 177.426 219.58 180.361 216.646 185.43L207.574 201.438L248.129 224.917L253.465 215.579Z" fill="#FEFEFE"/>
<path d="M217.981 284.682C205.975 305.759 204.107 323.368 204.107 326.303C204.107 326.303 203.84 326.57 203.84 326.303C199.571 306.026 213.712 284.682 213.712 284.682L233.989 249.73C233.989 249.552 233.989 249.552 233.989 249.73L236.657 251.064L225.985 216.38L189.966 224.117L193.168 225.984C193.168 225.984 193.168 226.073 193.168 226.251L172.09 262.804C169.156 267.606 169.156 273.743 172.09 278.545L197.437 322.568C200.372 327.637 205.441 330.572 211.044 330.572H239.059V284.682H218.248C218.248 284.682 218.159 284.682 217.981 284.682Z" fill="#FEFEFE"/>
</svg>
